<svg xmlns="http://www.w3.org/2000/svg" width="21.158" height="25.313" viewBox="0 0 21.158 25.313">
  <g id="campaigns-status" transform="translate(0.1 0.1)">
    <path id="Path_26524" data-name="Path 26524" d="M2.289,11.45c2.69,2.436,5.373,4.791,8.077,7.211l8.2-7.154V5.937L13.723,1.057H2.289V11.45ZM5.913,9.244a2.114,2.114,0,0,0,1.116,2.5,2.711,2.711,0,0,0,1.443-.3h0a.326.326,0,0,1,.231.018.377.377,0,0,1,.174.174c0,.018,0,.018.018.039.018.078.057.153.078.231a14.934,14.934,0,0,0,.576,1.578c.018.039.039.1.057.135v.018a3.851,3.851,0,0,0,.213.4,1.435,1.435,0,0,0,.213.309.237.237,0,0,0,.153.078.45.45,0,0,0,.249-.135,1.2,1.2,0,0,1,.153-.153h0l.174-.174a6.4,6.4,0,0,0,.636-.636l-.057-.02c-.654-.213-.615-.558-.576-.865h0a.563.563,0,0,0,0-.249h0c0-.018-.018,0-.057-.039-.018-.018-.039-.018-.057-.039a.9.9,0,0,1-.213-.249,1.152,1.152,0,0,1-.1-.345,1.228,1.228,0,0,1,.018-.366,2.031,2.031,0,0,1,.1-.4h0a.305.305,0,0,1,.078-.135.4.4,0,0,1,.153-.078h0a4.144,4.144,0,0,1,2.694.174c.1.039.213.078.309.114A8.785,8.785,0,0,1,10.9,4.84,9.29,9.29,0,0,1,9.629,6.553c-.646.595-3.487,2.173-3.716,2.692Zm7.35-.031a7.653,7.653,0,0,0,.828,1.059,4.464,4.464,0,0,0,.885.75h.057A.072.072,0,0,0,15.09,11a.073.073,0,0,0,.039-.018.434.434,0,0,0,.114-.231,1.108,1.108,0,0,0,.057-.366,5.209,5.209,0,0,0-.213-1.521A13.72,13.72,0,0,0,13.3,5.022a6.58,6.58,0,0,0-1.038-1.251,1.692,1.692,0,0,0-.345-.249.472.472,0,0,0-.249-.078h-.018a.254.254,0,0,0-.057.078h0a2.856,2.856,0,0,0-.039,1.308,9.627,9.627,0,0,0,.48,1.848,1.428,1.428,0,0,1,1.23,2.536Zm1.694,2.463h-.078a.125.125,0,0,1-.078-.018l-.1-.018c-.231-.018-.48-.078-.732-.114h-.018a4.034,4.034,0,0,1-.732-.231,3.338,3.338,0,0,0-2.211-.213.438.438,0,0,0-.018.153.672.672,0,0,0,0,.192c0,.039.018.078.018.114a.073.073,0,0,0,.018.039l.018.018a.664.664,0,0,1,.288.327.978.978,0,0,1,.039.4c-.018.135-.018.27.135.327h0a.7.7,0,0,1,.5.384c.018.018.018.057.039.078h0V13.2h0c-.039.366-.576.885-.885,1.173l-.153.153-.018.018-.116.117v.078a1.03,1.03,0,0,1-.711.347.841.841,0,0,1-.6-.288,2.427,2.427,0,0,1-.309-.423c-.078-.153-.153-.309-.231-.48a11.474,11.474,0,0,1-.636-1.713,2.419,2.419,0,0,1-1.713.288A2.778,2.778,0,0,1,5.161,9.062c.4-.885,3.058-2.04,4.1-3.193a10.456,10.456,0,0,0,1.386-2.058V3.793a6.56,6.56,0,0,1,.444-.732l.114-.114a.855.855,0,0,1,.135-.1.424.424,0,0,0,.153-.039h.174a1.6,1.6,0,0,1,.48.135,1.988,1.988,0,0,1,.5.345A7.672,7.672,0,0,1,13.8,4.64a13.314,13.314,0,0,1,1.1,1.944,14.537,14.537,0,0,1,.807,2.136,5.738,5.738,0,0,1,.231,1.692h0a2.264,2.264,0,0,1-.116.558,1.238,1.238,0,0,1-.249.441l-.018.018-.018.037a1.5,1.5,0,0,1-.231.135h0a.5.5,0,0,1-.213.057h-.078l-.055.018Zm4.674-1.02a.657.657,0,0,1,.433-.164.748.748,0,0,1,.368.1,1.054,1.054,0,0,1,.223.19,1.277,1.277,0,0,1,.3.76V24.111a1,1,0,0,1-1,1H1a1.008,1.008,0,0,1-1-1V11.55a1.251,1.251,0,0,1,.309-.766A.878.878,0,0,1,.531,10.6a.7.7,0,0,1,.36-.1.684.684,0,0,1,.347.1V.484A.485.485,0,0,1,1.725,0H14.031a.465.465,0,0,1,.374.178l5.1,5.093a.48.48,0,0,1,.137.341v.137c0,.02.006.039.006.059a.2.2,0,0,1-.006.059v4.8l-.006-.008Zm-9.592,9.1-2.066-1.85L.963,24.052v.053c0,.006,0,.02.006.02a.025.025,0,0,0,.02.006H19.938c.006,0,.02,0,.02-.006a.025.025,0,0,0,.006-.02v-.033l-7.107-6.23-2.189,1.909a.481.481,0,0,1-.642-.006l.012.012Zm-2.8-2.5L.957,11.648V22.763l6.283-5.5Zm12.733,5.527V11.648l-6.367,5.559,6.367,5.58Z" transform="translate(0 0)" fill="#1d252d" stroke="#1d252d" stroke-width="0.2"/>
  </g>
</svg>
