<svg xmlns="http://www.w3.org/2000/svg" xmlns:xlink="http://www.w3.org/1999/xlink" width="27.776" height="27.775" viewBox="0 0 27.776 27.775">
  <defs>
    <clipPath id="clip-path">
      <rect id="Rectangle_3576" data-name="Rectangle 3576" width="27.776" height="27.775" fill="none" stroke="#1d252d" stroke-width="0.2"/>
    </clipPath>
  </defs>
  <g id="how-it-works" clip-path="url(#clip-path)">
    <path id="Path_26059" data-name="Path 26059" d="M101.546,80.208c-.022.066-.049.132-.067.2a2.271,2.271,0,0,1-2.239,1.741.827.827,0,0,0-.812.42c-.252.395-.555.757-.835,1.135a.463.463,0,0,1-.558.218.469.469,0,0,1-.319-.509c.006-.405,0-.811,0-1.234h-.957V82.5c0,1.482-.028,2.965.008,4.446a2.126,2.126,0,0,1-2.221,2.221c-3.941-.029-7.882-.01-11.822-.011a2.048,2.048,0,0,1-2.194-2.18q0-2.277,0-4.555c0-.045,0-.09,0-.136.013-.293.172-.464.423-.456s.387.171.388.457c0,.741,0,1.482,0,2.223v.318h1.842c0-.5,0-1,0-1.495A3.483,3.483,0,0,1,85,79.864a12.058,12.058,0,0,1,1.42-.117c0-.2.008-.419-.006-.639a.22.22,0,0,0-.13-.141,4.066,4.066,0,0,1-2.478-2.524.273.273,0,0,0-.038-.052,1.253,1.253,0,0,1-1.29-.825,1.662,1.662,0,0,1,.443-2.217.367.367,0,0,0,.042-.285,4.926,4.926,0,0,1,.1-2.306,3.417,3.417,0,0,1,2.806-2.478,9.054,9.054,0,0,1,3.314-.049c.319.05.483.224.455.466-.03.26-.234.391-.571.338A8.344,8.344,0,0,0,86,69.089a2.721,2.721,0,0,0-2.3,2.748,4.784,4.784,0,0,0,0,.488c.031.477.035.967.536,1.289.039-.39.079-.775.115-1.162a2.188,2.188,0,0,1,.7-1.483.87.87,0,0,1,1.3.042,4.187,4.187,0,0,0,1.67,1.071q.455.175.909.352a3.9,3.9,0,0,1,2.014,1.407c.158-.188.306-.361.451-.537a.314.314,0,0,0,.062-.116,3.684,3.684,0,0,0-.412-3.044,2.454,2.454,0,0,0-.4-.436c-.236-.222-.285-.441-.124-.634s.406-.2.663.024a3.444,3.444,0,0,1,1.186,2.389c.053.6,0,1.2-.01,1.839A1.767,1.767,0,0,1,92.528,76a1.119,1.119,0,0,1-.883.4.245.245,0,0,0-.183.129,4.11,4.11,0,0,1-2.43,2.437.327.327,0,0,0-.156.229,4.638,4.638,0,0,0-.007.586c.255,0,.494-.005.733,0a3.479,3.479,0,0,1,2.867,1.494,3.425,3.425,0,0,1,.642,2.086c0,.478,0,.957,0,1.46h1.824v-2.63c-.237-.045-.471-.071-.693-.135A2.268,2.268,0,0,1,92.6,79.91c-.011-.786-.009-1.572,0-2.359a2.3,2.3,0,0,1,2.2-2.33c.035,0,.071-.007.148-.015v-.339q0-4.026,0-8.052c0-.431.137-.636.419-.629s.394.2.394.621q0,4.026,0,8.052v.347c.116.005.211.013.306.013h3.01a2.3,2.3,0,0,1,2.427,1.886.253.253,0,0,0,.042.066Zm-6.621,5.468H80.345c0,.437,0,.859,0,1.281a1.247,1.247,0,0,0,1.392,1.385H93.555c.081,0,.163,0,.244,0a1.167,1.167,0,0,0,1.115-.973c.05-.553.011-1.113.011-1.69m2.607-3.266M87.65,78.386a3.23,3.23,0,0,0,3.226-3.11.31.31,0,0,0-.2-.357.529.529,0,0,1-.24-.277,2.165,2.165,0,0,0-1.225-1.2c-.493-.22-1-.41-1.5-.61a4.56,4.56,0,0,1-1.873-1.2c-.127-.148-.252-.125-.321.018a3.411,3.411,0,0,0-.342.863c-.109.612-.135,1.238-.242,1.85a1,1,0,0,1-.342.545.371.371,0,0,0-.178.342,3.246,3.246,0,0,0,3.237,3.134m-4.616,6.422h9.25c0-.573.024-1.124,0-1.673a2.766,2.766,0,0,0-3.412-2.5c0,.651,0,1.308,0,1.966a1.22,1.22,0,0,1-1.2,1.271,1.232,1.232,0,0,1-1.239-1.267c-.008-.569,0-1.138,0-1.707,0-.1-.008-.191-.014-.3-.3,0-.583-.016-.86,0a2.625,2.625,0,0,0-2.5,2.315,15.538,15.538,0,0,0-.013,1.888m4.213-4.2c0,.706-.011,1.4.006,2.088a.371.371,0,0,0,.4.36.384.384,0,0,0,.394-.4c.011-.288,0-.577.005-.865,0-.393,0-.786,0-1.188Zm4.572-6.6a5.155,5.155,0,0,0-.14,1.572,1.015,1.015,0,0,0,.552-.974.545.545,0,0,0-.412-.6m-8.268-.017c-.385.139-.505.331-.491.659a.938.938,0,0,0,.562.907l-.071-1.566m3.7,5.774h.779V79.2h-.779Z" transform="translate(-73.769 -61.391)" stroke="#1d252d" stroke-width="0.2"/>
    <path id="Path_26060" data-name="Path 26060" d="M20.292,0c.083.029.166.062.25.088a1.994,1.994,0,0,1,1.44,1.836c.021.5.013.994.008,1.491,0,.289-.152.445-.4.446a.4.4,0,0,1-.409-.441c-.01-.424,0-.849,0-1.274A1.223,1.223,0,0,0,19.847.813c-.469,0-.938,0-1.446,0,0,.373,0,.731,0,1.089a.961.961,0,0,1-1.088,1.08H10.426A.97.97,0,0,1,9.338,1.9c0-.351,0-.7,0-1.068-.6,0-1.174-.039-1.744.011a1.158,1.158,0,0,0-1,1.03,1.992,1.992,0,0,0-.015.3c0,.368,0,.737,0,1.11.211.03.4.045.582.083a2.28,2.28,0,0,1,1.8,2.166c.014.795.01,1.59,0,2.386a2.3,2.3,0,0,1-2.152,2.327l-.231.017v.313q0,4.121,0,8.241c0,.09,0,.181,0,.271a.379.379,0,0,1-.384.38.384.384,0,0,1-.417-.346,1.352,1.352,0,0,1-.01-.27q0-4.121,0-8.241v-.34H4.835c0,.4-.006.792,0,1.187a.492.492,0,0,1-.33.556c-.262.086-.428-.056-.571-.25-.311-.422-.639-.832-.931-1.266a.51.51,0,0,0-.515-.249,2.259,2.259,0,0,1-1.3-.3A2.237,2.237,0,0,1,.012,7.968C-.006,7.173,0,6.377.01,5.582A2.288,2.288,0,0,1,2.295,3.307c1.048-.012,2.1,0,3.145,0h.322c0-.367,0-.707,0-1.048A2.055,2.055,0,0,1,7.448.03.174.174,0,0,0,7.492,0ZM3.969,10.431l.053-.023M10.152.825c0,.347,0,.662,0,.978,0,.365,0,.366.356.366h6.745a.5.5,0,0,0,.187-.008c.056-.025.134-.086.135-.133.011-.4.006-.8.006-1.2Z" transform="translate(0)" fill="#1d252d" stroke="#1d252d" stroke-width="0.2"/>
    <path id="Path_26065" data-name="Path 26065" d="M186.008,265.3h.807c0,.4,0,.795,0,1.188,0,.288.006.577-.005.865a.384.384,0,0,1-.394.4.37.37,0,0,1-.4-.36c-.017-.691-.006-1.382-.006-2.088" transform="translate(-172.53 -246.08)" fill="#fff" stroke="#1d252d" stroke-width="0.2"/>
    <path id="Path_26066" data-name="Path 26066" d="M247.37,174.177a.545.545,0,0,1,.412.6,1.015,1.015,0,0,1-.552.974,5.161,5.161,0,0,1,.14-1.572" transform="translate(-229.321 -161.56)" fill="#fff" stroke="#1d252d" stroke-width="0.2"/>
    <path id="Path_26067" data-name="Path 26067" d="M128.737,173.938l.071,1.566a.938.938,0,0,1-.562-.907c-.015-.327.106-.52.491-.659" transform="translate(-118.955 -161.338)" fill="#fff" stroke="#1d252d" stroke-width="0.2"/>
    <path id="Path_26068" data-name="Path 26068" d="M186.133,246.4v-.566h.779v.566Z" transform="translate(-172.65 -228.031)" fill="#fff" stroke="#1d252d" stroke-width="0.2"/>
    <path id="Path_26071" data-name="Path 26071" d="M154.229,347.34q1.191,0,2.382,0c.336,0,.531.152.531.406s-.2.406-.531.406H151.82c-.342,0-.525-.144-.525-.407s.183-.405.525-.406q1.2,0,2.409,0" transform="translate(-140.335 -322.179)" fill="#1d252d" stroke="#1d252d" stroke-width="0.2"/>
    <path id="Path_26072" data-name="Path 26072" d="M296.023,219c.523,0,1.047,0,1.57,0,.331,0,.5.138.507.393s-.166.415-.489.416q-1.6.008-3.2,0c-.312,0-.5-.175-.484-.425s.188-.382.493-.384c.532,0,1.065,0,1.6,0" transform="translate(-272.64 -203.138)" fill="#fff" stroke="#1d252d" stroke-width="0.2"/>
    <path id="Path_26073" data-name="Path 26073" d="M296.023,241.459c.514,0,1.029,0,1.543,0,.355,0,.529.132.534.393s-.172.416-.516.417c-1.047,0-2.094,0-3.141,0h-.054c-.292-.02-.468-.185-.457-.426s.183-.381.466-.383c.541,0,1.083,0,1.625,0" transform="translate(-272.64 -223.968)" fill="#fff" stroke="#1d252d" stroke-width="0.2"/>
    <path id="Path_26074" data-name="Path 26074" d="M45.185,73.059c0-.289-.008-.579,0-.867a.661.661,0,0,1,1.043-.589q.75.434,1.486.893a.658.658,0,0,1-.009,1.173q-.735.459-1.487.892a.659.659,0,0,1-1.033-.579c-.012-.307,0-.614,0-.922m.829-.639v1.319l1.1-.661-1.1-.658" transform="translate(-41.908 -66.307)" fill="#fff" stroke="#1d252d" stroke-width="0.2"/>
    <path id="Icon_ionic-ios-calculator" data-name="Icon ionic-ios-calculator" d="M27.223,3.375H9.973A2.377,2.377,0,0,0,7.594,5.754V31.927a2.377,2.377,0,0,0,2.379,2.379h17.25A2.377,2.377,0,0,0,29.6,31.927V5.754A2.377,2.377,0,0,0,27.223,3.375ZM26.331,23.6v5.948a1.78,1.78,0,0,1-1.784,1.784h0a1.78,1.78,0,0,1-1.784-1.784V23.6a1.78,1.78,0,0,1,1.784-1.784h0A1.78,1.78,0,0,1,26.331,23.6Zm0-5.948h0a1.78,1.78,0,0,1-1.784,1.784h0a1.78,1.78,0,0,1-1.784-1.784h0a1.78,1.78,0,0,1,1.784-1.784h0A1.78,1.78,0,0,1,26.331,17.651Zm-5.948,11.9h0A1.78,1.78,0,0,1,18.6,31.332h0a1.78,1.78,0,0,1-1.784-1.784h0A1.78,1.78,0,0,1,18.6,27.763h0A1.78,1.78,0,0,1,20.383,29.548Zm0-5.948h0A1.78,1.78,0,0,1,18.6,25.384h0A1.78,1.78,0,0,1,16.814,23.6h0A1.78,1.78,0,0,1,18.6,21.815h0A1.78,1.78,0,0,1,20.383,23.6Zm0-5.948h0A1.78,1.78,0,0,1,18.6,19.435h0a1.78,1.78,0,0,1-1.784-1.784h0A1.78,1.78,0,0,1,18.6,15.866h0A1.78,1.78,0,0,1,20.383,17.651Zm-5.948,11.9h0a1.78,1.78,0,0,1-1.784,1.784h0a1.78,1.78,0,0,1-1.784-1.784h0a1.78,1.78,0,0,1,1.784-1.784h0A1.78,1.78,0,0,1,14.434,29.548Zm0-5.948h0a1.78,1.78,0,0,1-1.784,1.784h0A1.78,1.78,0,0,1,10.865,23.6h0a1.78,1.78,0,0,1,1.784-1.784h0A1.78,1.78,0,0,1,14.434,23.6Zm0-5.948h0a1.78,1.78,0,0,1-1.784,1.784h0a1.78,1.78,0,0,1-1.784-1.784h0a1.78,1.78,0,0,1,1.784-1.784h0A1.78,1.78,0,0,1,14.434,17.651ZM10.865,11.7V8.134a1.193,1.193,0,0,1,1.19-1.19H25.141a1.193,1.193,0,0,1,1.19,1.19V11.7a1.193,1.193,0,0,1-1.19,1.19H12.055A1.193,1.193,0,0,1,10.865,11.7Z" transform="translate(-13.747 120.35)"/>
  </g>
</svg>
