<svg id="inf-instagram" xmlns="http://www.w3.org/2000/svg" xmlns:xlink="http://www.w3.org/1999/xlink" width="15.338" height="15.338" viewBox="0 0 15.338 15.338">
  <defs>
    <radialGradient id="radial-gradient" cx="0.372" cy="1.001" r="1.247" gradientUnits="objectBoundingBox">
      <stop offset="0" stop-color="#fd5"/>
      <stop offset="0.328" stop-color="#ff543f"/>
      <stop offset="0.348" stop-color="#fc5245"/>
      <stop offset="0.504" stop-color="#e64771"/>
      <stop offset="0.643" stop-color="#d53e91"/>
      <stop offset="0.761" stop-color="#cc39a4"/>
      <stop offset="0.841" stop-color="#c837ab"/>
    </radialGradient>
    <radialGradient id="radial-gradient-2" cx="0.161" cy="-0.012" r="0.828" gradientTransform="translate(0 -0.004) scale(1 0.666)" gradientUnits="objectBoundingBox">
      <stop offset="0" stop-color="#4168c9"/>
      <stop offset="0.999" stop-color="#4168c9" stop-opacity="0"/>
    </radialGradient>
  </defs>
  <path id="Path_22116" data-name="Path 22116" d="M17.925,21.32l-8.517.008A3.417,3.417,0,0,1,6,17.925L5.99,9.408A3.417,3.417,0,0,1,9.393,6L17.91,5.99a3.417,3.417,0,0,1,3.41,3.4l.008,8.517A3.416,3.416,0,0,1,17.925,21.32Z" transform="translate(-5.99 -5.99)" fill="url(#radial-gradient)"/>
  <path id="Path_22117" data-name="Path 22117" d="M17.925,21.32l-8.517.008A3.417,3.417,0,0,1,6,17.925L5.99,9.408A3.417,3.417,0,0,1,9.393,6L17.91,5.99a3.417,3.417,0,0,1,3.41,3.4l.008,8.517A3.416,3.416,0,0,1,17.925,21.32Z" transform="translate(-5.99 -5.99)" fill="url(#radial-gradient-2)"/>
  <path id="Path_22118" data-name="Path 22118" d="M19.981,22.962a2.981,2.981,0,1,1,2.981-2.981A2.984,2.984,0,0,1,19.981,22.962Zm0-5.11a2.129,2.129,0,1,0,2.129,2.129A2.132,2.132,0,0,0,19.981,17.852Z" transform="translate(-12.312 -12.312)" fill="#fff"/>
  <ellipse id="Ellipse_109" data-name="Ellipse 109" cx="0.5" cy="1" rx="0.5" ry="1" transform="translate(10.211 3.211)" fill="#fff"/>
  <path id="Path_22119" data-name="Path 22119" d="M19.091,22.072h-5.11A2.984,2.984,0,0,1,11,19.091v-5.11A2.984,2.984,0,0,1,13.981,11h5.11a2.984,2.984,0,0,1,2.981,2.981v5.11A2.984,2.984,0,0,1,19.091,22.072Zm-5.11-10.22a2.132,2.132,0,0,0-2.129,2.129v5.11a2.132,2.132,0,0,0,2.129,2.129h5.11a2.132,2.132,0,0,0,2.129-2.129v-5.11a2.132,2.132,0,0,0-2.129-2.129Z" transform="translate(-8.867 -8.867)" fill="#fff"/>
</svg>
