<svg id="Group_10480" data-name="Group 10480" xmlns="http://www.w3.org/2000/svg" xmlns:xlink="http://www.w3.org/1999/xlink" width="28.133" height="26.751" viewBox="0 0 28.133 26.751">
  <defs>
    <clipPath id="clip-path">
      <rect id="Rectangle_3577" data-name="Rectangle 3577" width="28.133" height="26.751" fill="#1d252d"/>
    </clipPath>
  </defs>
  <g id="influencers" clip-path="url(#clip-path)">
    <path id="Path_26075" data-name="Path 26075" d="M0,10.211c3.02-.66,5.977-1.31,8.938-1.947a.714.714,0,0,0,.517-.38Q11.669,4.074,13.9.274C13.947.2,14,.119,14.068,0c.069.112.126.2.178.288q2.241,3.827,4.477,7.656a.573.573,0,0,0,.415.3q4.346.94,8.689,1.892c.087.019.173.046.306.081-.112.129-.2.238-.3.344Q24.921,13.838,22,17.11a.538.538,0,0,0-.147.464c.236,2.314.46,4.629.688,6.943.072.728.147,1.456.226,2.235-.149-.063-.262-.108-.373-.157q-4.021-1.763-8.041-3.53a.632.632,0,0,0-.565,0Q9.763,24.842,5.727,26.6c-.106.047-.215.086-.355.141.068-.7.132-1.362.2-2.026q.262-2.638.525-5.275c.062-.629.113-1.259.189-1.886a.5.5,0,0,0-.14-.439Q3.2,13.819.258,10.511c-.077-.086-.151-.175-.258-.3m10.55,6.867a4.5,4.5,0,0,1,6.206-6.429,4.392,4.392,0,0,1,1.687,2.562,4.446,4.446,0,0,1-.827,3.816l2.716,2.031c0,.02,0-.021,0-.062-.063-.619-.117-1.24-.194-1.857a.749.749,0,0,1,.2-.665c.993-1.091,1.967-2.2,2.947-3.3L25,11.242c-.108-.029-.183-.054-.26-.071-2.234-.49-4.467-.983-6.7-1.464a.514.514,0,0,1-.373-.274Q15.959,6.5,14.244,3.579c-.052-.088-.107-.174-.177-.286-.074.123-.121.2-.168.279Q12.194,6.487,10.492,9.4a.606.606,0,0,1-.437.32c-1.718.367-3.433.744-5.149,1.119l-1.764.388c.062.077.1.128.14.175q2.266,2.546,4.537,5.086a.706.706,0,0,1,.188.617c-.077.627-.134,1.256-.2,1.885a1,1,0,0,0,.022.178,12.641,12.641,0,0,1,2.719-2.092M7.4,24.049c.156-.066.265-.111.373-.158q3.041-1.331,6.08-2.666a.485.485,0,0,1,.436-.005q2.433,1.077,4.872,2.14c.515.226,1.032.449,1.571.683,0-.073,0-.109,0-.144,0-.055-.005-.11-.014-.164a6.537,6.537,0,0,0-1.689-3.506,14.416,14.416,0,0,0-2.695-1.975c-.057-.039-.19,0-.271.035a4.428,4.428,0,0,1-3.972-.006.322.322,0,0,0-.372.02c-.469.32-.947.625-1.421.938a6.434,6.434,0,0,0-1.975,2.032A6.331,6.331,0,0,0,7.4,24.049m6.665-12.625A2.831,2.831,0,1,0,16.9,14.246a2.833,2.833,0,0,0-2.839-2.822" transform="translate(0 -0.001)" fill="#1d252d"/>
  </g>
</svg>
