<svg id="manage-campaigns" xmlns="http://www.w3.org/2000/svg" width="23.787" height="26.262" viewBox="0 0 23.787 26.262">
  <path id="Path_26526" data-name="Path 26526" d="M9.633,6.144c-2.162,0-2.826.021-5.009.021a3.609,3.609,0,0,0-.706.064,2.818,2.818,0,0,0-.642.193,3.23,3.23,0,0,0-.6.321,3.506,3.506,0,0,0-.535.45,3.506,3.506,0,0,0-.45.535,3.23,3.23,0,0,0-.321.6,3.661,3.661,0,0,0-.193.642,3.942,3.942,0,0,0-.064.706V16.8a3.609,3.609,0,0,0,.064.706,2.818,2.818,0,0,0,.193.642,3.23,3.23,0,0,0,.321.6,3.506,3.506,0,0,0,.45.535h0a3.657,3.657,0,0,0,.557.45,3.23,3.23,0,0,0,.6.321,3.661,3.661,0,0,0,.642.193,3.942,3.942,0,0,0,.706.064h2.7a.432.432,0,0,1,.235.064,1.176,1.176,0,0,1,.193.15h0c.214.278.428.557.664.813a8.25,8.25,0,0,0,.749.749,8.585,8.585,0,0,0,.813.685c.278.214.578.428.856.621a9.062,9.062,0,0,0,.9.535c.3.171.621.321.942.471a.1.1,0,0,0,.107,0,.116.116,0,0,0,.043-.171c-.064-.107-.107-.193-.171-.3-.043-.107-.107-.193-.15-.3h0c-.086-.214-.171-.407-.257-.621a6.051,6.051,0,0,1-.235-.664c-.064-.214-.15-.428-.214-.642s-.128-.428-.193-.664a.593.593,0,0,1-.021-.193.615.615,0,0,1,.15-.385h0a.536.536,0,0,1,.385-.171h3.147a3.608,3.608,0,0,0,.706-.064,3.661,3.661,0,0,0,.642-.193h0a3.056,3.056,0,0,0,.578-.321,2.829,2.829,0,0,0,.557-.471h0a3.506,3.506,0,0,0,.45-.535,3.23,3.23,0,0,0,.321-.6,3.662,3.662,0,0,0,.193-.642,3.942,3.942,0,0,0,.064-.706V15.306a.577.577,0,0,1,1.113-.214v1.67a4.333,4.333,0,0,1-.086.921,6.792,6.792,0,0,1-.257.878,4.065,4.065,0,0,1-.428.792,3.746,3.746,0,0,1-.6.706,4.565,4.565,0,0,1-.706.6,6.927,6.927,0,0,1-.771.428h0a6.5,6.5,0,0,1-.856.257,4.333,4.333,0,0,1-.921.086H13.016a.122.122,0,0,0-.086.15h0c.043.128.086.278.128.428h0c.064.193.15.407.235.6s.15.385.235.557v.021c.086.193.171.364.278.557.107.171.235.364.364.535s.278.343.45.535h0a4.279,4.279,0,0,0,.557.514.664.664,0,0,1,.193.385.641.641,0,0,1-.128.385.4.4,0,0,1-.257.15.705.705,0,0,1-.3,0c-.407-.107-.813-.235-1.2-.364a10.419,10.419,0,0,1-1.135-.45c-.364-.15-.728-.343-1.07-.514-.343-.193-.685-.385-1.006-.6h0c-.321-.214-.642-.428-.942-.664s-.6-.492-.878-.749h0a7.152,7.152,0,0,1-.685-.706c-.214-.235-.45-.492-.642-.749a.118.118,0,0,0-.107-.064h-2.4A4.333,4.333,0,0,1,3.7,21.3a5.658,5.658,0,0,1-.856-.257h0a4.065,4.065,0,0,1-.792-.428,4.621,4.621,0,0,1-.706-.578,5.845,5.845,0,0,1-.6-.706,4.065,4.065,0,0,1-.428-.792,5.658,5.658,0,0,1-.257-.856A5.442,5.442,0,0,1,0,16.8V9.633a4.333,4.333,0,0,1,.086-.921,5.658,5.658,0,0,1,.257-.856,4.065,4.065,0,0,1,.428-.792,3.746,3.746,0,0,1,.6-.706,5.845,5.845,0,0,1,.706-.6,6.927,6.927,0,0,1,.771-.428h0a5.927,5.927,0,0,1,.878-.257,4.333,4.333,0,0,1,.921-.086H9.89a.6.6,0,0,1-.257,1.156Zm2.8,1.113a1.59,1.59,0,0,0-.107.792l.064.385c.043.128.086.278.128.407l.193.385a1.772,1.772,0,0,0,.235.321,1.479,1.479,0,0,0,.728.492c.492.15,1.349-.278,1.8-.428h0a.348.348,0,0,1,.257.021.42.42,0,0,1,.193.193c0,.021,0,.021.021.043.021.086.064.171.086.257a16.235,16.235,0,0,0,.642,1.755c.021.043.043.107.064.15v.021a4.53,4.53,0,0,0,.235.45,1.575,1.575,0,0,0,.235.343.264.264,0,0,0,.171.086.5.5,0,0,0,.278-.15,1.292,1.292,0,0,1,.171-.171h0l.193-.193a7.289,7.289,0,0,0,.706-.706l-.064-.021c-.728-.235-.685-.621-.642-.963h0a.6.6,0,0,0,0-.278h0c0-.021-.021,0-.064-.043-.021-.021-.043-.021-.064-.043a.961.961,0,0,1-.235-.278,1.253,1.253,0,0,1-.086-.792,2.313,2.313,0,0,1,.107-.45h0a.345.345,0,0,1,.086-.15.43.43,0,0,1,.171-.086h0a4.617,4.617,0,0,1,3,.193c.107.043.235.086.343.128A7.529,7.529,0,0,1,20.4,7.835a12.264,12.264,0,0,1-1.156-2.077,13.482,13.482,0,0,1-.792-2.184,9.651,9.651,0,0,1-.278-1.413,10.283,10.283,0,0,1-1.413,1.905c-.6.557-4.089,2.655-4.324,3.19Zm8.948-1.648a2.162,2.162,0,0,1-.214.985,1.551,1.551,0,0,1-.364.535,8.623,8.623,0,0,0,.921,1.177,4.983,4.983,0,0,0,.985.835h.064a.079.079,0,0,0,.064-.021.075.075,0,0,0,.043-.021.488.488,0,0,0,.128-.257,1.246,1.246,0,0,0,.064-.407,5.8,5.8,0,0,0-.235-1.691,15.054,15.054,0,0,0-.835-2.226,15.593,15.593,0,0,0-1.156-2.055A7.358,7.358,0,0,0,19.695,1.07,1.9,1.9,0,0,0,19.31.792a.518.518,0,0,0-.278-.086H19.01a.3.3,0,0,0-.064.086h0A3.145,3.145,0,0,0,18.9,2.248,10.831,10.831,0,0,0,19.438,4.3a.532.532,0,0,1,.193-.021,1.993,1.993,0,0,1,.835.107,1.366,1.366,0,0,1,.771.621,1.874,1.874,0,0,1,.15.6Zm1.306,4.26h-.086a.129.129,0,0,1-.086-.021l-.107-.021c-.257-.021-.535-.086-.813-.128h-.021a4.523,4.523,0,0,1-.813-.257A3.71,3.71,0,0,0,18.3,9.205a.471.471,0,0,0-.021.171.718.718,0,0,0,0,.214c0,.043.021.086.021.128a.075.075,0,0,0,.021.043l.021.021a.741.741,0,0,1,.321.364,1.075,1.075,0,0,1,.043.45c-.021.15-.021.3.15.364h0a.779.779,0,0,1,.557.428c.021.021.021.064.043.086h0v.086h0c-.043.407-.642.985-.985,1.306l-.171.171-.021.021-.128.128v.086a1.141,1.141,0,0,1-.792.385.937.937,0,0,1-.664-.321,2.666,2.666,0,0,1-.343-.471c-.086-.171-.171-.343-.257-.535-.021-.043-.043-.107-.064-.15a13.8,13.8,0,0,1-.642-1.755,2.69,2.69,0,0,1-1.905.321,2.469,2.469,0,0,1-1.049-.706h0a3.059,3.059,0,0,1-.3-.428,3.223,3.223,0,0,1-.235-.471,4.484,4.484,0,0,1-.171-.492,2.149,2.149,0,0,1-.086-.514,2.36,2.36,0,0,1,.15-1.177c.45-.985,3.4-2.269,4.56-3.554A11.518,11.518,0,0,0,17.9,1.113V1.092a7.262,7.262,0,0,1,.492-.813L18.518.15a.906.906,0,0,1,.15-.107A.5.5,0,0,0,18.839,0h.193a1.842,1.842,0,0,1,.535.15,2.177,2.177,0,0,1,.557.385,8.578,8.578,0,0,1,1.284,1.5A14.94,14.94,0,0,1,22.628,4.2a16.247,16.247,0,0,1,.9,2.376,6.373,6.373,0,0,1,.257,1.884h0a2.653,2.653,0,0,1-.128.621,1.4,1.4,0,0,1-.278.492l-.021.021-.021.043a1.6,1.6,0,0,1-.257.15h0a.558.558,0,0,1-.235.064h-.086l-.064.021Zm-8.627,7.279a.514.514,0,1,0,0-1.028l-5.5-.086L7.514,15.97a.525.525,0,0,0-.064,1.049l1.049.064c.021-.021,5.095.043,5.566.064Zm-1.648-3.254a.514.514,0,1,0,0-1.028H4.988a.514.514,0,1,0,0,1.028Zm-2.312-3.1a.514.514,0,1,0,0-1.028H4.988a.514.514,0,0,0,0,1.028Z" transform="translate(0)"/>
</svg>
