<svg xmlns="http://www.w3.org/2000/svg" width="27.776" height="20.475" viewBox="0 0 27.776 20.475">
  <path id="apply" d="M10.824,0h4.819q-.482.455-.948.925l-.016.016H10.824A1.046,1.046,0,0,0,9.782,1.983V6.868a1.049,1.049,0,0,0,.9,1.032V7.883a1.94,1.94,0,0,1,.969-1.841,1.535,1.535,0,0,1,.7-.167,1.551,1.551,0,0,1,.7.167,1.663,1.663,0,0,1,.642.58,10.075,10.075,0,0,0-2.629-3.261l1.5-.339a4.086,4.086,0,0,1,1.107.871A15.563,15.563,0,0,1,16.917.4l.127-.049H18.46a32.489,32.489,0,0,0-4.732,6.339,2.283,2.283,0,0,1,.3,1.182v.042h2.927a1.04,1.04,0,0,0,.716-.287l.019-.02a1.039,1.039,0,0,0,.307-.735V2.4q.426-.5.855-.992a1.956,1.956,0,0,1,.087.577V6.868a1.98,1.98,0,0,1-.583,1.4l-.029.027a1.977,1.977,0,0,1-1.372.556H14.024v.2a.363.363,0,0,1,.094-.012h.5a.348.348,0,0,1,.083.01,1.238,1.238,0,0,1,1.032,1.008A.361.361,0,0,1,15.923,10h.5a.348.348,0,0,1,.083.01,1.271,1.271,0,0,1,1.057,1.108.376.376,0,0,1,.1-.013h.5a.378.378,0,0,1,.083.01c1.362.218,1.342,1.972,1.329,3.116,0,.529.023,1.056.028,1.585a6.937,6.937,0,0,1-1.2,3.191l-.049.085a3.04,3.04,0,0,1-.885,1.017,1.992,1.992,0,0,1-1.135.362l-.034,0H12.039a1.126,1.126,0,0,1-1-.546,2.938,2.938,0,0,1-.4-1.228l-2.7-4.08a4.889,4.889,0,0,1-.526-.894,2.622,2.622,0,0,1-.232-.867,1.761,1.761,0,0,1,.124-.845,1.02,1.02,0,0,1,.554-.544,1.257,1.257,0,0,1,.72-.053,2.031,2.031,0,0,1,.876.431l.93.763.293.241V8.847A1.991,1.991,0,0,1,8.84,6.868V1.983A1.988,1.988,0,0,1,10.824,0Zm5.958,15.551a.294.294,0,1,1,.588,0v1.344a.294.294,0,0,1-.588,0Zm-1.737-.594a.294.294,0,0,1,.588,0v1.937a.294.294,0,1,1-.588,0V14.956Zm2.6-3.129c.015.382-.008.778-.028,1.137-.012.212-.023.408-.023.591a.36.36,0,1,1-.719,0c0-.169.012-.391.026-.63.05-.892.118-2.084-.505-2.2h-.472a.359.359,0,0,1-.091-.011A10.514,10.514,0,0,1,15.813,12c-.012.212-.023.409-.023.591a.36.36,0,0,1-.72,0c0-.169.013-.391.026-.63.05-.892.118-2.085-.505-2.2h-.472a.363.363,0,0,1-.094-.012V11.6a.36.36,0,1,1-.719,0V7.869a1.242,1.242,0,0,0-.582-1.186.836.836,0,0,0-.375-.091.823.823,0,0,0-.374.091,1.253,1.253,0,0,0-.575,1.2v6.547a.36.36,0,1,1-.72,0v-.665a.347.347,0,0,1-.055-.036c-.184-.147-.439-.355-.692-.561L9,12.4a1.3,1.3,0,0,0-.555-.279.562.562,0,0,0-.312.014.32.32,0,0,0-.169.174,1.074,1.074,0,0,0-.062.505,1.906,1.906,0,0,0,.174.623,4.131,4.131,0,0,0,.454.77l2.756,4.168a.353.353,0,0,1,.057.156,2.382,2.382,0,0,0,.291,1,.451.451,0,0,0,.4.227c1.362-.022,2.944-.059,4.292,0a1.3,1.3,0,0,0,.73-.236,2.346,2.346,0,0,0,.668-.783l.052-.088a6.406,6.406,0,0,0,1.1-2.858l-.028-1.222a.353.353,0,0,1,0-.054l0-.289c.01-.9.025-2.265-.719-2.4h-.483ZM1.983,0H5.389a1.978,1.978,0,0,1,1.4.583l.027.029a1.977,1.977,0,0,1,.556,1.372V6.868A1.99,1.99,0,0,1,5.389,8.852H1.983a1.976,1.976,0,0,1-1.4-.583h0A1.977,1.977,0,0,1,0,6.868V1.983A1.978,1.978,0,0,1,.582.582L.611.556A1.974,1.974,0,0,1,1.983,0ZM5.389.941H1.983a1.04,1.04,0,0,0-.717.286l-.019.02a1.04,1.04,0,0,0-.307.736V6.868A1.048,1.048,0,0,0,1.983,7.911H5.389A1.049,1.049,0,0,0,6.431,6.868V1.983a1.042,1.042,0,0,0-.287-.717l-.02-.019A1.039,1.039,0,0,0,5.389.941Zm17-.941h3.406a1.978,1.978,0,0,1,1.4.583l.027.029a1.977,1.977,0,0,1,.556,1.372V6.868a1.99,1.99,0,0,1-1.983,1.983H22.386a1.976,1.976,0,0,1-1.4-.583h0a1.977,1.977,0,0,1-.583-1.4V1.983a1.978,1.978,0,0,1,.582-1.4l.029-.026A1.974,1.974,0,0,1,22.386,0Zm3.406.941H22.386a1.04,1.04,0,0,0-.717.286l-.019.02a1.04,1.04,0,0,0-.307.736V6.868a1.048,1.048,0,0,0,1.042,1.042h3.406a1.048,1.048,0,0,0,1.042-1.042V1.983a1.042,1.042,0,0,0-.287-.717l-.02-.019a1.039,1.039,0,0,0-.735-.307Z"/>
</svg>
