<svg id="dashboard" xmlns="http://www.w3.org/2000/svg" width="27.81" height="25.637" viewBox="0 0 27.81 25.637">
  <g id="Group_1152" data-name="Group 1152">
    <g id="Group_1151" data-name="Group 1151">
      <path id="Path_20114" data-name="Path 20114" d="M23.737,24.071A13.9,13.9,0,0,0,2.382,41.684l1.8-1.218a11.732,11.732,0,1,1,19.447,0l1.8,1.218a13.9,13.9,0,0,0-1.69-17.613Z" transform="translate(0 -20)" fill="#1d252d"/>
    </g>
  </g>
  <g id="Group_1154" data-name="Group 1154" transform="translate(12.496 4.16)">
    <g id="Group_1153" data-name="Group 1153">
      <circle id="Ellipse_43" data-name="Ellipse 43" cx="1" cy="1" r="1" transform="translate(0)" fill="#1d252d"/>
    </g>
  </g>
  <g id="Group_1156" data-name="Group 1156" transform="translate(4.496 13.16)">
    <g id="Group_1155" data-name="Group 1155">
      <circle id="Ellipse_44" data-name="Ellipse 44" cx="1" cy="1" r="1" transform="translate(0 0)" fill="#1d252d"/>
    </g>
  </g>
  <g id="Group_1158" data-name="Group 1158" transform="translate(7.496 7.16)">
    <g id="Group_1157" data-name="Group 1157" transform="translate(0 0)">
      <circle id="Ellipse_45" data-name="Ellipse 45" cx="1" cy="1" r="1" transform="translate(0 0)" fill="#1d252d"/>
    </g>
  </g>
  <g id="Group_1160" data-name="Group 1160" transform="translate(21.496 13.16)">
    <g id="Group_1159" data-name="Group 1159" transform="translate(0 0)">
      <circle id="Ellipse_46" data-name="Ellipse 46" cx="1" cy="1" r="1" transform="translate(0 0)" fill="#1d252d"/>
    </g>
  </g>
  <g id="Group_1162" data-name="Group 1162" transform="translate(12.167 6.592)">
    <g id="Group_1161" data-name="Group 1161">
      <path id="Path_20115" data-name="Path 20115" d="M233.051,142.894l-1.536-1.536-5.586,5.586a1.739,1.739,0,1,0,1.536,1.536Z" transform="translate(-224 -141.358)" fill="#1d252d"/>
    </g>
  </g>
  <g id="Group_1164" data-name="Group 1164" transform="translate(7.93 19.119)">
    <g id="Group_1163" data-name="Group 1163">
      <path id="Path_20116" data-name="Path 20116" d="M146,372v6.518h11.95V372Zm9.777,4.345h-7.6v-2.173h7.6Z" transform="translate(-146 -372)" fill="#1d252d"/>
    </g>
  </g>
</svg>
