<svg xmlns="http://www.w3.org/2000/svg" shape-rendering="geometricPrecision" text-rendering="geometricPrecision" image-rendering="optimizeQuality" fill-rule="evenodd" clip-rule="evenodd" viewBox="0 0 445 512.53"><path fill-rule="nonzero" d="M86.49 87.84c-3.16-5.05-9.12-11.91-9.12-17.83 0-3.34 2.64-7.7 6.42-8.66-.3-5.01-.5-10.08-.5-15.11 0-2.98.05-5.99.17-8.94.16-1.85.5-3.7 1-5.5a31.795 31.795 0 0 1 14.19-18.03c2.41-1.51 5.02-2.7 7.69-3.67 4.88-1.78 2.52-9.99 7.87-10.09 12.47-.33 33.01 11.1 41.01 19.77a31.68 31.68 0 0 1 8.18 20.53l-.5 21.87c2.21.54 4.69 2.27 5.24 4.5 1.72 6.89-5.45 15.48-8.77 20.97-3.08 5.08-14.81 21.46-14.82 21.57-.05.59.25 1.36 1.05 2.56 16.69 22.93 58.52 11.63 66.19 47.82H33.7c7.67-36.23 49.52-24.89 66.2-47.82.9-1.32 1.31-2.03 1.29-2.61 0-.32-13.49-19.41-14.7-21.33zM374.8 223.75l-60.11 70.45-16.23-13.92 60.11-70.44 16.23 13.91zm-73.71 86.39-21.24 24.91-16.24-13.91 21.25-24.92 16.23 13.92zm-9.39 202.39H143.38V377.48L11.57 221.09c-5.2-6.47-8.8-13.18-10.45-19.39-1.55-5.84-1.53-11.54.29-16.6 2.01-5.6 6.02-10.1 12.1-12.95 4.17-1.95 9.35-3.05 15.52-3.08l381.82-.05c6.89-.25 12.99.83 18.02 2.99 6.1 2.58 10.67 6.83 13.42 12.31 2.65 5.3 3.42 11.53 2.03 18.3-1.3 6.3-4.49 13.14-9.84 20.13l-132.05 154.8v134.98H291.7zm-126.88-21.45h116.16V373.65l2.61-6.96 133.99-157.05c3.28-4.32 5.16-8.15 5.82-11.32.4-1.92.3-3.44-.21-4.46-.42-.84-1.37-1.62-2.76-2.21-2.21-.99-5.27-1.42-9.08-1.24l-382.28.05c-2.9-.04-5.08.36-6.53 1.03-.59.28-.94.57-1.02.8-.28.79-.18 2.15.29 3.88.91 3.44 3.13 7.44 6.41 11.54l134.05 159.07 2.55 6.87v117.43zM286 87.84c-3.18-5.05-9.13-11.91-9.13-17.83 0-3.34 2.63-7.7 6.41-8.66-.3-5.01-.5-10.08-.5-15.11 0-2.98.06-5.99.17-8.94.16-1.85.51-3.7 1.01-5.5a31.738 31.738 0 0 1 14.18-18.03c2.41-1.51 5.09-2.74 7.7-3.67 4.83-1.71 2.51-9.99 7.86-10.09 12.48-.33 33.02 11.1 41.03 19.77a31.764 31.764 0 0 1 8.16 20.53l-.5 21.87c2.22.54 4.73 2.34 5.25 4.5 1.64 6.85-5.46 15.48-8.78 20.97-3.07 5.08-14.82 21.52-14.82 21.57 0 .58.25 1.36 1.06 2.56 16.69 22.93 58.51 11.63 66.18 47.82H233.2c7.66-36.23 49.52-24.89 66.2-47.82.89-1.32 1.29-2.03 1.29-2.61 0-.31-13.49-19.41-14.69-21.33z"/></svg>