<svg xmlns="http://www.w3.org/2000/svg" width="15.446" height="12.55" viewBox="0 0 15.446 12.55">
  <path id="inf-twitter" d="M15.446,49.486a6.6,6.6,0,0,1-1.825.5,3.149,3.149,0,0,0,1.393-1.75A6.329,6.329,0,0,1,13.007,49a3.166,3.166,0,0,0-5.478,2.165,3.261,3.261,0,0,0,.073.722,8.963,8.963,0,0,1-6.527-3.312,3.167,3.167,0,0,0,.973,4.232,3.127,3.127,0,0,1-1.431-.39v.035a3.181,3.181,0,0,0,2.537,3.111,3.161,3.161,0,0,1-.83.1,2.8,2.8,0,0,1-.6-.054,3.2,3.2,0,0,0,2.959,2.206A6.363,6.363,0,0,1,.758,59.172,5.928,5.928,0,0,1,0,59.129,8.915,8.915,0,0,0,4.858,60.55a8.951,8.951,0,0,0,9.013-9.011c0-.14,0-.275-.012-.409A6.317,6.317,0,0,0,15.446,49.486Z" transform="translate(0 -48)" fill="#03a8f3"/>
</svg>
