<svg xmlns="http://www.w3.org/2000/svg" width="25.174" height="18.881" viewBox="0 0 25.174 18.881">
  <path id="report-analytics_" data-name="report-analytics " d="M19.51,78.161h1.1a.677.677,0,0,0,.629-.629V66.2a.677.677,0,0,0-.629-.629h-1.1a.677.677,0,0,0-.629.629V77.531A.677.677,0,0,0,19.51,78.161Zm-9.44,0h1.1a.677.677,0,0,0,.629-.629V67.776a.677.677,0,0,0-.629-.629h-1.1a.677.677,0,0,0-.629.629v9.755A.677.677,0,0,0,10.07,78.161Zm4.72,0h1.1a.677.677,0,0,0,.629-.629V70.923a.677.677,0,0,0-.629-.629h-1.1a.677.677,0,0,0-.629.629v6.608A.677.677,0,0,0,14.79,78.161Zm9.59,3.147H1.771l.008-16.521A.786.786,0,0,0,.992,64h-.2A.786.786,0,0,0,0,64.787V81.307a1.574,1.574,0,0,0,1.573,1.573H24.388c.435,0,.779-.565.779-1l.008.427C25.174,81.873,24.815,81.307,24.38,81.307ZM5.35,78.161h1.1a.677.677,0,0,0,.629-.629V74.07a.677.677,0,0,0-.629-.629H5.35a.677.677,0,0,0-.629.629v3.461A.677.677,0,0,0,5.35,78.161Z" transform="translate(0 -64)" fill="#1d252d"/>
</svg>
