<svg xmlns="http://www.w3.org/2000/svg" width="29.068" height="26.81" viewBox="0 0 29.068 26.81">
  <g id="your-campaigns" transform="translate(0.251 0.295)">
    <path id="Path_26058" data-name="Path 26058" d="M19.041,3.914a.582.582,0,0,1-.74-.9L21.787.137a.581.581,0,1,1,.74.9L19.041,3.914ZM2.109,14.06a1.432,1.432,0,0,0-.853.694,2.806,2.806,0,0,0-.305,1.4,4.534,4.534,0,0,0,.065.7,5.124,5.124,0,0,0,.173.71,5.047,5.047,0,0,0,.278.685,4.536,4.536,0,0,0,.358.6h0a2.734,2.734,0,0,0,1.191.99,1.905,1.905,0,0,0,1.351.014l.009,0a.413.413,0,0,1,.167-.021.527.527,0,0,1,.118.021l.012,0c.132-.044.268-.086.4-.127l.368-.113.382-.111c.118-.035.238-.067.361-.1a.474.474,0,0,1,.361.046l.012.007a.474.474,0,0,1,.21.28.264.264,0,0,1,.012.056c.032.146.072.3.1.442a25.292,25.292,0,0,0,.823,3.1c.028.088.062.173.095.261.1.278.2.564.319.826a2.909,2.909,0,0,0,.363.648v0a.487.487,0,0,0,.352.21.924.924,0,0,0,.574-.247c.1-.095.194-.176.289-.257l.021-.019a2.129,2.129,0,0,0,.675-.8.411.411,0,0,0-.062-.039,1.785,1.785,0,0,0-.187-.088l-.007,0a1.578,1.578,0,0,1-.671-.433,1.363,1.363,0,0,1-.21-1.082c0-.032.007-.06.012-.088s.009-.065.012-.1a2.266,2.266,0,0,0,.037-.4v0c-.007-.009-.056-.044-.153-.134-.028-.025-.058-.051-.083-.079a1.208,1.208,0,0,1-.31-.47,1.759,1.759,0,0,1-.1-.629,3.2,3.2,0,0,1,.083-.659,4.585,4.585,0,0,1,.231-.717l0-.007a.46.46,0,0,1,.143-.185.473.473,0,0,1,.224-.095h0a16.182,16.182,0,0,1,4.351-.058,18.307,18.307,0,0,1,2.736.594A14.3,14.3,0,0,1,14.8,16.91a22.594,22.594,0,0,1-1.635-3.647,24.41,24.41,0,0,1-1-3.793,15.387,15.387,0,0,1-.257-2.806,18.181,18.181,0,0,1-2.891,3.3,19.97,19.97,0,0,1-6.478,3.758l-.09.03-.014.023s0,0-.051.081l0,.007a.482.482,0,0,1-.109.118h0a.479.479,0,0,1-.153.079Zm13.2,1.79a15.329,15.329,0,0,0,1.436,2.285,8.328,8.328,0,0,0,1.587,1.6l.058,0a.445.445,0,0,0,.079,0h.009a.563.563,0,0,0,.134-.023.718.718,0,0,0,.139-.062,1.483,1.483,0,0,0,.294-.463,2.951,2.951,0,0,0,.194-.712,9.27,9.27,0,0,0-.13-2.93,23.583,23.583,0,0,0-1.078-3.895,26.245,26.245,0,0,0-1.647-3.661,12.294,12.294,0,0,0-1.772-2.542,3.76,3.76,0,0,0-.634-.544,1.382,1.382,0,0,0-.52-.227h0c-.037-.007-.067-.009-.09-.012s0-.007,0,0h0s0,0-.014.014-.051.046-.086.081a1.152,1.152,0,0,0-.088.095l-.009.019a5.468,5.468,0,0,0-.3,2.5,18.783,18.783,0,0,0,.631,3.694,2.6,2.6,0,0,1,2.334.433,2.319,2.319,0,0,1,.687.988,2.758,2.758,0,0,1,.148,1.217A2.8,2.8,0,0,1,15.3,15.85Zm2.942,4.832a.465.465,0,0,1-.139,0,.44.44,0,0,1-.13-.039c-.062-.012-.125-.023-.185-.037-.437-.09-.863-.213-1.321-.342l-.03-.009a15.128,15.128,0,0,0-6.68-.618,3.352,3.352,0,0,0-.1.377,2.163,2.163,0,0,0-.046.391.99.99,0,0,0,.03.261.293.293,0,0,0,.076.134l.056.051a1.186,1.186,0,0,1,.453.613,1.994,1.994,0,0,1-.019.8c-.007.053-.012.106-.021.16a.461.461,0,0,0,.062.363.661.661,0,0,0,.259.155l.012,0a1.234,1.234,0,0,1,.814.74.441.441,0,0,1,.035.134.484.484,0,0,1,0,.141v0a2.029,2.029,0,0,1-.416.9,4.528,4.528,0,0,1-.629.618l-.051.044c-.076.065-.15.13-.222.2l-.037.032a1.824,1.824,0,0,1-1.307.5,1.44,1.44,0,0,1-.967-.6,3.839,3.839,0,0,1-.474-.819c-.134-.3-.25-.618-.361-.925-.03-.086-.062-.171-.095-.257a25.915,25.915,0,0,1-.853-3.2c-.083.023-.167.051-.25.074-.13.039-.257.076-.379.116l-.368.116-.007,0a.3.3,0,0,0-.044.016l-.007,0a.76.76,0,0,1-.227.069.426.426,0,0,1-.2-.028,2.806,2.806,0,0,1-1.836-.093A3.732,3.732,0,0,1,1.045,19.4l0,0a5.591,5.591,0,0,1-.43-.733,6.02,6.02,0,0,1-.328-.812,5.714,5.714,0,0,1-.206-.847A5.811,5.811,0,0,1,0,16.165a3.774,3.774,0,0,1,.433-1.894,2.348,2.348,0,0,1,1.233-1.062c.021-.032.037-.06.056-.083a.679.679,0,0,1,.106-.111l.009-.007a.662.662,0,0,1,.141-.09c.046-.021.1-.042.171-.067l.065-.023A18.817,18.817,0,0,0,8.645,9.009a18.956,18.956,0,0,0,2.988-3.638l.014-.021A8.721,8.721,0,0,1,12.584,4.1h0a1.817,1.817,0,0,1,.208-.185.936.936,0,0,1,.231-.127.925.925,0,0,1,.273-.056,1.486,1.486,0,0,1,.308.023,2.245,2.245,0,0,1,.83.333,4.6,4.6,0,0,1,.856.717,13.225,13.225,0,0,1,1.9,2.713,27.029,27.029,0,0,1,1.725,3.828,24.508,24.508,0,0,1,1.126,4.11,10.059,10.059,0,0,1,.123,3.185,3.986,3.986,0,0,1-.287,1,2.366,2.366,0,0,1-.507.736l-.03.028-.042.03a1.6,1.6,0,0,1-.4.2,1.535,1.535,0,0,1-.4.072h-.009c-.046,0-.09,0-.132,0s-.072-.009-.109-.014Zm5.692-2.528A.58.58,0,1,1,23.894,17l4.071-.153A.581.581,0,0,1,28.008,18l-4.071.15ZM23.822,14.2a.58.58,0,1,1-.155-1.15l3.761-.5a.58.58,0,0,1,.155,1.15l-3.761.5Zm-.791-3.631a.582.582,0,1,1-.382-1.1L26.5,8.13a.582.582,0,0,1,.382,1.1l-3.856,1.339ZM21.213,7.073a.58.58,0,1,1-.574-1.008l3.654-2.1a.58.58,0,0,1,.574,1.008l-3.654,2.1Z" transform="translate(0 0)" fill="#1d252d" stroke="#1d252d" stroke-width="0.5" fill-rule="evenodd"/>
  </g>
</svg>
